<?xml version="1.0" encoding="UTF-8"?>
<svg xmlns="http://www.w3.org/2000/svg" xmlns:xlink="http://www.w3.org/1999/xlink" width="18px" height="18px" viewBox="0 0 18 18" version="1.1">
<g id="surface1">
<path style=" stroke:none;fill-rule:nonzero;fill:rgb(18.039216%,80%,44.313725%);fill-opacity:1;" d="M 16.496094 0 L 1.511719 0 C 0.683594 0 0.0195312 0.675781 0.0195312 1.496094 L 0.0195312 16.503906 C 0.0195312 17.332031 0.695312 18 1.511719 18 L 16.488281 18 C 17.316406 18 17.980469 17.324219 17.980469 16.503906 L 17.980469 1.496094 C 17.992188 0.675781 17.324219 0 16.496094 0 Z M 5.339844 14.847656 L 2.683594 14.847656 L 2.683594 6.871094 L 5.339844 6.871094 Z M 4.007812 5.90625 C 3.167969 5.90625 2.496094 5.230469 2.496094 4.394531 C 2.496094 3.558594 3.167969 2.882812 4.007812 2.882812 C 4.84375 2.882812 5.519531 3.558594 5.519531 4.394531 C 5.519531 5.230469 4.84375 5.90625 4.007812 5.90625 Z M 15.335938 14.847656 L 12.667969 14.847656 L 12.605469 10.113281 C 12.605469 10.113281 12.667969 8.851562 11.292969 8.859375 C 9.914062 8.871094 9.726562 10.113281 9.726562 10.113281 L 9.726562 14.847656 L 7.042969 14.847656 L 7.042969 6.871094 L 9.617188 6.871094 L 9.617188 7.96875 C 9.617188 7.96875 9.726562 7.609375 10.320312 7.1875 C 10.914062 6.761719 11.894531 6.671875 12.316406 6.691406 C 12.742188 6.707031 13.316406 6.636719 14.28125 7.300781 C 15.316406 8.015625 15.34375 9.878906 15.34375 9.878906 Z M 15.335938 14.847656 "/>
</g>
</svg>
