<svg xmlns="http://www.w3.org/2000/svg" xmlns:xlink="http://www.w3.org/1999/xlink" zoomAndPan="magnify" preserveAspectRatio="xMidYMid meet" version="1.0" viewBox="44.19 86.05 288.1 186.91"><defs><g/><clipPath id="aa1cf467bc"><path d="M 114.578125 139 L 260.410156 139 L 260.410156 220.222656 L 114.578125 220.222656 Z M 114.578125 139 " clip-rule="nonzero"/></clipPath><clipPath id="bd2fae4760"><path d="M 223 86.054688 L 229 86.054688 L 229 91 L 223 91 Z M 223 86.054688 " clip-rule="nonzero"/></clipPath><clipPath id="c2ac8ef4f1"><path d="M 187 86.054688 L 192 86.054688 L 192 91 L 187 91 Z M 187 86.054688 " clip-rule="nonzero"/></clipPath><clipPath id="74932c3bf1"><path d="M 114.578125 135 L 119 135 L 119 140 L 114.578125 140 Z M 114.578125 135 " clip-rule="nonzero"/></clipPath><clipPath id="100c94d0dd"><path d="M 114.578125 122 L 119 122 L 119 132 L 114.578125 132 Z M 114.578125 122 " clip-rule="nonzero"/></clipPath><clipPath id="43e76fff82"><path d="M 114.578125 114 L 119 114 L 119 119 L 114.578125 119 Z M 114.578125 114 " clip-rule="nonzero"/></clipPath><clipPath id="ec70fec80d"><path d="M 114.578125 106 L 119 106 L 119 111 L 114.578125 111 Z M 114.578125 106 " clip-rule="nonzero"/></clipPath><clipPath id="d08137c412"><path d="M 256 139 L 260.410156 139 L 260.410156 144 L 256 144 Z M 256 139 " clip-rule="nonzero"/></clipPath><clipPath id="b75f29d6dd"><path d="M 256 131 L 260.410156 131 L 260.410156 136 L 256 136 Z M 256 131 " clip-rule="nonzero"/></clipPath><clipPath id="65486f8477"><path d="M 256 118 L 260.410156 118 L 260.410156 123 L 256 123 Z M 256 118 " clip-rule="nonzero"/></clipPath><clipPath id="95056e339a"><path d="M 256 106 L 260.410156 106 L 260.410156 115 L 256 115 Z M 256 106 " clip-rule="nonzero"/></clipPath><clipPath id="d38daaf375"><path d="M 114.578125 121.605469 L 260.410156 121.605469 L 260.410156 220.773438 L 114.578125 220.773438 Z M 114.578125 121.605469 " clip-rule="nonzero"/></clipPath></defs><g clip-path="url(#aa1cf467bc)"><path fill="#ffffff" d="M 252.308594 155.347656 L 248.257812 155.347656 L 248.257812 143.195312 L 244.207031 143.195312 L 244.207031 139.144531 L 240.15625 139.144531 L 240.15625 147.246094 L 244.207031 147.246094 L 244.207031 151.296875 L 240.15625 151.296875 L 240.15625 147.246094 L 236.105469 147.246094 L 236.105469 155.347656 L 232.054688 155.347656 L 232.054688 147.246094 L 236.105469 147.246094 L 236.105469 139.144531 L 232.054688 139.144531 L 232.054688 143.195312 L 228.003906 143.195312 L 228.003906 147.246094 L 219.902344 147.246094 L 219.902344 143.195312 L 215.851562 143.195312 L 215.851562 139.144531 L 211.800781 139.144531 L 211.800781 147.246094 L 215.851562 147.246094 L 215.851562 151.296875 L 219.902344 151.296875 L 219.902344 159.398438 L 215.851562 159.398438 L 215.851562 151.296875 L 211.800781 151.296875 L 211.800781 147.246094 L 207.75 147.246094 L 207.75 139.144531 L 199.648438 139.144531 L 199.648438 143.195312 L 203.699219 143.195312 L 203.699219 151.296875 L 207.75 151.296875 L 207.75 155.347656 L 211.800781 155.347656 L 211.800781 159.398438 L 207.75 159.398438 L 207.75 155.347656 L 203.699219 155.347656 L 203.699219 159.398438 L 199.648438 159.398438 L 199.648438 155.347656 L 203.699219 155.347656 L 203.699219 151.296875 L 199.648438 151.296875 L 199.648438 143.195312 L 195.597656 143.195312 L 195.597656 139.144531 L 191.546875 139.144531 L 191.546875 147.246094 L 195.597656 147.246094 L 195.597656 151.296875 L 191.546875 151.296875 L 191.546875 155.347656 L 195.597656 155.347656 L 195.597656 159.398438 L 191.546875 159.398438 L 191.546875 155.347656 L 187.496094 155.347656 L 187.496094 159.398438 L 183.445312 159.398438 L 183.445312 155.347656 L 187.496094 155.347656 L 187.496094 151.296875 L 191.546875 151.296875 L 191.546875 147.246094 L 187.496094 147.246094 L 187.496094 139.144531 L 179.394531 139.144531 L 179.394531 143.195312 L 183.445312 143.195312 L 183.445312 151.296875 L 179.394531 151.296875 L 179.394531 143.195312 L 175.34375 143.195312 L 175.34375 151.296875 L 171.289062 151.296875 L 171.289062 155.347656 L 167.238281 155.347656 L 167.238281 151.296875 L 171.289062 151.296875 L 171.289062 143.195312 L 167.238281 143.195312 L 167.238281 147.246094 L 163.1875 147.246094 L 163.1875 155.347656 L 159.136719 155.347656 L 159.136719 159.398438 L 155.085938 159.398438 L 155.085938 155.347656 L 159.136719 155.347656 L 159.136719 147.246094 L 163.1875 147.246094 L 163.1875 143.195312 L 155.085938 143.195312 L 155.085938 139.144531 L 151.035156 139.144531 L 151.035156 147.246094 L 155.085938 147.246094 L 155.085938 151.296875 L 151.035156 151.296875 L 151.035156 147.246094 L 146.984375 147.246094 L 146.984375 139.144531 L 142.933594 139.144531 L 142.933594 143.195312 L 138.882812 143.195312 L 138.882812 147.246094 L 142.933594 147.246094 L 142.933594 151.296875 L 146.984375 151.296875 L 146.984375 155.347656 L 151.035156 155.347656 L 151.035156 159.398438 L 146.984375 159.398438 L 146.984375 163.449219 L 151.035156 163.449219 L 151.035156 167.5 L 146.984375 167.5 L 146.984375 163.449219 L 142.933594 163.449219 L 142.933594 159.398438 L 146.984375 159.398438 L 146.984375 155.347656 L 142.933594 155.347656 L 142.933594 151.296875 L 138.882812 151.296875 L 138.882812 155.347656 L 134.832031 155.347656 L 134.832031 151.296875 L 138.882812 151.296875 L 138.882812 147.246094 L 134.832031 147.246094 L 134.832031 143.195312 L 130.78125 143.195312 L 130.78125 139.144531 L 126.730469 139.144531 L 126.730469 147.246094 L 130.78125 147.246094 L 130.78125 155.347656 L 126.730469 155.347656 L 126.730469 147.246094 L 122.679688 147.246094 L 122.679688 139.144531 L 118.628906 139.144531 L 118.628906 147.246094 L 114.578125 147.246094 L 114.578125 220.160156 L 260.410156 220.160156 L 260.410156 163.449219 L 256.359375 163.449219 L 256.359375 159.398438 L 260.410156 159.398438 L 260.410156 155.347656 L 256.359375 155.347656 L 256.359375 151.296875 L 260.410156 151.296875 L 260.410156 147.246094 L 256.359375 147.246094 L 256.359375 143.195312 L 252.308594 143.195312 Z M 134.832031 159.398438 L 138.882812 159.398438 L 138.882812 163.449219 L 134.832031 163.449219 Z M 126.730469 159.398438 L 130.78125 159.398438 L 130.78125 163.449219 L 126.730469 163.449219 Z M 118.628906 151.296875 L 122.679688 151.296875 L 122.679688 159.398438 L 118.628906 159.398438 Z M 118.628906 163.449219 L 122.679688 163.449219 L 122.679688 167.5 L 118.628906 167.5 Z M 122.679688 179.652344 L 118.628906 179.652344 L 118.628906 175.601562 L 122.679688 175.601562 L 122.679688 171.550781 L 126.730469 171.550781 L 126.730469 175.601562 L 122.679688 175.601562 Z M 130.78125 187.753906 L 126.730469 187.753906 L 126.730469 183.703125 L 130.78125 183.703125 Z M 130.78125 167.5 L 134.832031 167.5 L 134.832031 171.550781 L 130.78125 171.550781 Z M 138.882812 179.652344 L 134.832031 179.652344 L 134.832031 175.601562 L 138.882812 175.601562 L 138.882812 171.550781 L 142.933594 171.550781 L 142.933594 175.601562 L 138.882812 175.601562 Z M 146.984375 187.753906 L 142.933594 187.753906 L 142.933594 183.703125 L 146.984375 183.703125 Z M 223.953125 151.296875 L 228.003906 151.296875 L 228.003906 155.347656 L 223.953125 155.347656 Z M 203.699219 163.449219 L 207.75 163.449219 L 207.75 167.5 L 203.699219 167.5 Z M 187.496094 163.449219 L 191.546875 163.449219 L 191.546875 167.5 L 187.496094 167.5 Z M 171.289062 159.398438 L 175.34375 159.398438 L 175.34375 155.347656 L 179.394531 155.347656 L 179.394531 159.398438 L 175.34375 159.398438 L 175.34375 163.449219 L 171.289062 163.449219 Z M 163.1875 159.398438 L 167.238281 159.398438 L 167.238281 163.449219 L 163.1875 163.449219 Z M 155.085938 163.449219 L 159.136719 163.449219 L 159.136719 167.5 L 155.085938 167.5 Z M 155.085938 179.652344 L 151.035156 179.652344 L 151.035156 175.601562 L 155.085938 175.601562 L 155.085938 171.550781 L 159.136719 171.550781 L 159.136719 175.601562 L 155.085938 175.601562 Z M 163.1875 187.753906 L 159.136719 187.753906 L 159.136719 183.703125 L 163.1875 183.703125 Z M 163.1875 171.550781 L 163.1875 167.5 L 167.238281 167.5 L 167.238281 171.550781 L 171.289062 171.550781 L 171.289062 175.601562 L 167.238281 175.601562 L 167.238281 171.550781 Z M 175.34375 187.753906 L 171.289062 187.753906 L 171.289062 183.703125 L 175.34375 183.703125 Z M 179.394531 179.652344 L 175.34375 179.652344 L 175.34375 175.601562 L 179.394531 175.601562 Z M 179.394531 163.449219 L 183.445312 163.449219 L 183.445312 167.5 L 179.394531 167.5 Z M 183.445312 171.550781 L 187.496094 171.550781 L 187.496094 175.601562 L 183.445312 175.601562 Z M 191.546875 187.753906 L 187.496094 187.753906 L 187.496094 183.703125 L 191.546875 183.703125 Z M 195.597656 179.652344 L 191.546875 179.652344 L 191.546875 175.601562 L 195.597656 175.601562 Z M 195.597656 163.449219 L 199.648438 163.449219 L 199.648438 167.5 L 195.597656 167.5 Z M 199.648438 171.550781 L 203.699219 171.550781 L 203.699219 175.601562 L 199.648438 175.601562 Z M 207.75 187.753906 L 203.699219 187.753906 L 203.699219 183.703125 L 207.75 183.703125 Z M 211.800781 179.652344 L 207.75 179.652344 L 207.75 175.601562 L 211.800781 175.601562 Z M 215.851562 171.550781 L 211.800781 171.550781 L 211.800781 167.5 L 215.851562 167.5 L 215.851562 163.449219 L 219.902344 163.449219 L 219.902344 167.5 L 215.851562 167.5 Z M 223.953125 187.753906 L 219.902344 187.753906 L 219.902344 183.703125 L 223.953125 183.703125 Z M 223.953125 175.601562 L 219.902344 175.601562 L 219.902344 171.550781 L 223.953125 171.550781 Z M 223.953125 159.398438 L 228.003906 159.398438 L 228.003906 163.449219 L 232.054688 163.449219 L 232.054688 167.5 L 228.003906 167.5 L 228.003906 163.449219 L 223.953125 163.449219 Z M 228.003906 171.550781 L 232.054688 171.550781 L 232.054688 175.601562 L 228.003906 175.601562 Z M 236.105469 187.753906 L 232.054688 187.753906 L 232.054688 183.703125 L 236.105469 183.703125 Z M 244.207031 175.601562 L 240.15625 175.601562 L 240.15625 179.652344 L 236.105469 179.652344 L 236.105469 175.601562 L 240.15625 175.601562 L 240.15625 171.550781 L 244.207031 171.550781 Z M 244.207031 159.398438 L 240.15625 159.398438 L 240.15625 163.449219 L 244.207031 163.449219 L 244.207031 167.5 L 240.15625 167.5 L 240.15625 163.449219 L 236.105469 163.449219 L 236.105469 159.398438 L 240.15625 159.398438 L 240.15625 155.347656 L 244.207031 155.347656 Z M 248.257812 159.398438 L 252.308594 159.398438 L 252.308594 163.449219 L 248.257812 163.449219 Z M 252.308594 187.753906 L 248.257812 187.753906 L 248.257812 183.703125 L 252.308594 183.703125 Z M 256.359375 175.601562 L 252.308594 175.601562 L 252.308594 171.550781 L 248.257812 171.550781 L 248.257812 167.5 L 252.308594 167.5 L 252.308594 171.550781 L 256.359375 171.550781 Z M 256.359375 175.601562 " fill-opacity="1" fill-rule="nonzero"/></g><path fill="#ffffff" d="M 207.75 118.886719 L 211.800781 118.886719 L 211.800781 131.042969 L 207.75 131.042969 Z M 207.75 118.886719 " fill-opacity="1" fill-rule="nonzero"/><g clip-path="url(#bd2fae4760)"><path fill="#ffffff" d="M 223.953125 86.480469 L 228.003906 86.480469 L 228.003906 90.53125 L 223.953125 90.53125 Z M 223.953125 86.480469 " fill-opacity="1" fill-rule="nonzero"/></g><g clip-path="url(#c2ac8ef4f1)"><path fill="#ffffff" d="M 187.496094 86.480469 L 191.546875 86.480469 L 191.546875 90.53125 L 187.496094 90.53125 Z M 187.496094 86.480469 " fill-opacity="1" fill-rule="nonzero"/></g><path fill="#ffffff" d="M 163.1875 90.53125 L 167.238281 90.53125 L 167.238281 94.582031 L 163.1875 94.582031 Z M 163.1875 90.53125 " fill-opacity="1" fill-rule="nonzero"/><path fill="#ffffff" d="M 155.085938 98.632812 L 159.136719 98.632812 L 159.136719 102.683594 L 155.085938 102.683594 Z M 155.085938 98.632812 " fill-opacity="1" fill-rule="nonzero"/><path fill="#ffffff" d="M 146.984375 102.683594 L 151.035156 102.683594 L 151.035156 106.734375 L 146.984375 106.734375 Z M 146.984375 102.683594 " fill-opacity="1" fill-rule="nonzero"/><path fill="#ffffff" d="M 146.984375 110.785156 L 151.035156 110.785156 L 151.035156 114.835938 L 146.984375 114.835938 Z M 146.984375 110.785156 " fill-opacity="1" fill-rule="nonzero"/><path fill="#ffffff" d="M 146.984375 118.886719 L 151.035156 118.886719 L 151.035156 122.9375 L 146.984375 122.9375 Z M 146.984375 118.886719 " fill-opacity="1" fill-rule="nonzero"/><path fill="#ffffff" d="M 146.984375 126.992188 L 151.035156 126.992188 L 151.035156 131.042969 L 146.984375 131.042969 Z M 146.984375 126.992188 " fill-opacity="1" fill-rule="nonzero"/><path fill="#ffffff" d="M 146.984375 135.09375 L 151.035156 135.09375 L 151.035156 139.144531 L 146.984375 139.144531 Z M 146.984375 135.09375 " fill-opacity="1" fill-rule="nonzero"/><path fill="#ffffff" d="M 142.933594 131.042969 L 146.984375 131.042969 L 146.984375 135.09375 L 142.933594 135.09375 Z M 142.933594 131.042969 " fill-opacity="1" fill-rule="nonzero"/><path fill="#ffffff" d="M 138.882812 135.09375 L 142.933594 135.09375 L 142.933594 139.144531 L 138.882812 139.144531 Z M 138.882812 135.09375 " fill-opacity="1" fill-rule="nonzero"/><path fill="#ffffff" d="M 134.832031 131.042969 L 138.882812 131.042969 L 138.882812 135.09375 L 134.832031 135.09375 Z M 134.832031 131.042969 " fill-opacity="1" fill-rule="nonzero"/><path fill="#ffffff" d="M 130.78125 135.09375 L 134.832031 135.09375 L 134.832031 139.144531 L 130.78125 139.144531 Z M 130.78125 135.09375 " fill-opacity="1" fill-rule="nonzero"/><path fill="#ffffff" d="M 126.730469 131.042969 L 130.78125 131.042969 L 130.78125 135.09375 L 126.730469 135.09375 Z M 126.730469 131.042969 " fill-opacity="1" fill-rule="nonzero"/><path fill="#ffffff" d="M 122.679688 135.09375 L 126.730469 135.09375 L 126.730469 139.144531 L 122.679688 139.144531 Z M 122.679688 135.09375 " fill-opacity="1" fill-rule="nonzero"/><path fill="#ffffff" d="M 118.628906 131.042969 L 122.679688 131.042969 L 122.679688 135.09375 L 118.628906 135.09375 Z M 118.628906 131.042969 " fill-opacity="1" fill-rule="nonzero"/><g clip-path="url(#74932c3bf1)"><path fill="#ffffff" d="M 114.578125 135.09375 L 118.628906 135.09375 L 118.628906 139.144531 L 114.578125 139.144531 Z M 114.578125 135.09375 " fill-opacity="1" fill-rule="nonzero"/></g><g clip-path="url(#100c94d0dd)"><path fill="#ffffff" d="M 114.578125 122.9375 L 118.628906 122.9375 L 118.628906 131.042969 L 114.578125 131.042969 Z M 114.578125 122.9375 " fill-opacity="1" fill-rule="nonzero"/></g><g clip-path="url(#43e76fff82)"><path fill="#ffffff" d="M 114.578125 114.835938 L 118.628906 114.835938 L 118.628906 118.886719 L 114.578125 118.886719 Z M 114.578125 114.835938 " fill-opacity="1" fill-rule="nonzero"/></g><g clip-path="url(#ec70fec80d)"><path fill="#ffffff" d="M 114.578125 106.734375 L 118.628906 106.734375 L 118.628906 110.785156 L 114.578125 110.785156 Z M 114.578125 106.734375 " fill-opacity="1" fill-rule="nonzero"/></g><path fill="#ffffff" d="M 138.882812 94.582031 L 142.933594 94.582031 L 142.933594 98.632812 L 138.882812 98.632812 Z M 138.882812 94.582031 " fill-opacity="1" fill-rule="nonzero"/><path fill="#ffffff" d="M 122.679688 90.53125 L 126.730469 90.53125 L 126.730469 94.582031 L 122.679688 94.582031 Z M 122.679688 90.53125 " fill-opacity="1" fill-rule="nonzero"/><path fill="#ffffff" d="M 122.679688 102.683594 L 126.730469 102.683594 L 126.730469 106.734375 L 122.679688 106.734375 Z M 122.679688 102.683594 " fill-opacity="1" fill-rule="nonzero"/><path fill="#ffffff" d="M 130.78125 102.683594 L 134.832031 102.683594 L 134.832031 106.734375 L 130.78125 106.734375 Z M 130.78125 102.683594 " fill-opacity="1" fill-rule="nonzero"/><path fill="#ffffff" d="M 138.882812 106.734375 L 142.933594 106.734375 L 142.933594 110.785156 L 138.882812 110.785156 Z M 138.882812 106.734375 " fill-opacity="1" fill-rule="nonzero"/><path fill="#ffffff" d="M 134.832031 110.785156 L 138.882812 110.785156 L 138.882812 114.835938 L 134.832031 114.835938 Z M 134.832031 110.785156 " fill-opacity="1" fill-rule="nonzero"/><path fill="#ffffff" d="M 138.882812 114.835938 L 142.933594 114.835938 L 142.933594 118.886719 L 138.882812 118.886719 Z M 138.882812 114.835938 " fill-opacity="1" fill-rule="nonzero"/><path fill="#ffffff" d="M 134.832031 118.886719 L 138.882812 118.886719 L 138.882812 122.9375 L 134.832031 122.9375 Z M 134.832031 118.886719 " fill-opacity="1" fill-rule="nonzero"/><path fill="#ffffff" d="M 138.882812 122.9375 L 142.933594 122.9375 L 142.933594 131.042969 L 138.882812 131.042969 Z M 138.882812 122.9375 " fill-opacity="1" fill-rule="nonzero"/><path fill="#ffffff" d="M 130.78125 126.992188 L 134.832031 126.992188 L 134.832031 131.042969 L 130.78125 131.042969 Z M 130.78125 126.992188 " fill-opacity="1" fill-rule="nonzero"/><path fill="#ffffff" d="M 122.679688 126.992188 L 126.730469 126.992188 L 126.730469 131.042969 L 122.679688 131.042969 Z M 122.679688 126.992188 " fill-opacity="1" fill-rule="nonzero"/><path fill="#ffffff" d="M 126.730469 122.9375 L 130.78125 122.9375 L 130.78125 126.992188 L 126.730469 126.992188 Z M 126.730469 122.9375 " fill-opacity="1" fill-rule="nonzero"/><path fill="#ffffff" d="M 122.679688 118.886719 L 126.730469 118.886719 L 126.730469 122.9375 L 122.679688 122.9375 Z M 122.679688 118.886719 " fill-opacity="1" fill-rule="nonzero"/><path fill="#ffffff" d="M 126.730469 114.835938 L 130.78125 114.835938 L 130.78125 118.886719 L 126.730469 118.886719 Z M 126.730469 114.835938 " fill-opacity="1" fill-rule="nonzero"/><path fill="#ffffff" d="M 151.035156 114.835938 L 155.085938 114.835938 L 155.085938 118.886719 L 151.035156 118.886719 Z M 151.035156 114.835938 " fill-opacity="1" fill-rule="nonzero"/><path fill="#ffffff" d="M 151.035156 122.9375 L 155.085938 122.9375 L 155.085938 126.992188 L 151.035156 126.992188 Z M 151.035156 122.9375 " fill-opacity="1" fill-rule="nonzero"/><path fill="#ffffff" d="M 151.035156 131.042969 L 155.085938 131.042969 L 155.085938 135.09375 L 151.035156 135.09375 Z M 151.035156 131.042969 " fill-opacity="1" fill-rule="nonzero"/><path fill="#ffffff" d="M 155.085938 126.992188 L 163.1875 126.992188 L 163.1875 131.042969 L 155.085938 131.042969 Z M 155.085938 126.992188 " fill-opacity="1" fill-rule="nonzero"/><path fill="#ffffff" d="M 163.1875 131.042969 L 167.238281 131.042969 L 167.238281 135.09375 L 163.1875 135.09375 Z M 163.1875 131.042969 " fill-opacity="1" fill-rule="nonzero"/><path fill="#ffffff" d="M 171.289062 131.042969 L 175.34375 131.042969 L 175.34375 135.09375 L 171.289062 135.09375 Z M 171.289062 131.042969 " fill-opacity="1" fill-rule="nonzero"/><path fill="#ffffff" d="M 167.238281 135.09375 L 171.289062 135.09375 L 171.289062 139.144531 L 167.238281 139.144531 Z M 167.238281 135.09375 " fill-opacity="1" fill-rule="nonzero"/><path fill="#ffffff" d="M 155.085938 135.09375 L 163.1875 135.09375 L 163.1875 139.144531 L 155.085938 139.144531 Z M 155.085938 135.09375 " fill-opacity="1" fill-rule="nonzero"/><path fill="#ffffff" d="M 134.832031 139.144531 L 138.882812 139.144531 L 138.882812 143.195312 L 134.832031 143.195312 Z M 134.832031 139.144531 " fill-opacity="1" fill-rule="nonzero"/><path fill="#ffffff" d="M 163.1875 139.144531 L 167.238281 139.144531 L 167.238281 143.195312 L 163.1875 143.195312 Z M 163.1875 139.144531 " fill-opacity="1" fill-rule="nonzero"/><path fill="#ffffff" d="M 171.289062 139.144531 L 175.34375 139.144531 L 175.34375 143.195312 L 171.289062 143.195312 Z M 171.289062 139.144531 " fill-opacity="1" fill-rule="nonzero"/><path fill="#ffffff" d="M 175.34375 135.09375 L 179.394531 135.09375 L 179.394531 139.144531 L 175.34375 139.144531 Z M 175.34375 135.09375 " fill-opacity="1" fill-rule="nonzero"/><path fill="#ffffff" d="M 175.34375 126.992188 L 179.394531 126.992188 L 179.394531 131.042969 L 175.34375 131.042969 Z M 175.34375 126.992188 " fill-opacity="1" fill-rule="nonzero"/><path fill="#ffffff" d="M 175.34375 118.886719 L 179.394531 118.886719 L 179.394531 122.9375 L 175.34375 122.9375 Z M 175.34375 118.886719 " fill-opacity="1" fill-rule="nonzero"/><path fill="#ffffff" d="M 175.34375 110.785156 L 179.394531 110.785156 L 179.394531 114.835938 L 175.34375 114.835938 Z M 175.34375 110.785156 " fill-opacity="1" fill-rule="nonzero"/><path fill="#ffffff" d="M 175.34375 98.632812 L 179.394531 98.632812 L 179.394531 102.683594 L 175.34375 102.683594 Z M 175.34375 98.632812 " fill-opacity="1" fill-rule="nonzero"/><path fill="#ffffff" d="M 167.238281 102.683594 L 171.289062 102.683594 L 171.289062 106.734375 L 167.238281 106.734375 Z M 167.238281 102.683594 " fill-opacity="1" fill-rule="nonzero"/><path fill="#ffffff" d="M 167.238281 110.785156 L 171.289062 110.785156 L 171.289062 114.835938 L 167.238281 114.835938 Z M 167.238281 110.785156 " fill-opacity="1" fill-rule="nonzero"/><path fill="#ffffff" d="M 159.136719 106.734375 L 163.1875 106.734375 L 163.1875 110.785156 L 159.136719 110.785156 Z M 159.136719 106.734375 " fill-opacity="1" fill-rule="nonzero"/><path fill="#ffffff" d="M 187.496094 135.09375 L 191.546875 135.09375 L 191.546875 139.144531 L 187.496094 139.144531 Z M 187.496094 135.09375 " fill-opacity="1" fill-rule="nonzero"/><path fill="#ffffff" d="M 187.496094 110.785156 L 191.546875 110.785156 L 191.546875 114.835938 L 187.496094 114.835938 Z M 187.496094 110.785156 " fill-opacity="1" fill-rule="nonzero"/><path fill="#ffffff" d="M 187.496094 102.683594 L 191.546875 102.683594 L 191.546875 106.734375 L 187.496094 106.734375 Z M 187.496094 102.683594 " fill-opacity="1" fill-rule="nonzero"/><path fill="#ffffff" d="M 179.394531 106.734375 L 183.445312 106.734375 L 183.445312 110.785156 L 179.394531 110.785156 Z M 179.394531 106.734375 " fill-opacity="1" fill-rule="nonzero"/><path fill="#ffffff" d="M 179.394531 114.835938 L 183.445312 114.835938 L 183.445312 118.886719 L 179.394531 118.886719 Z M 179.394531 114.835938 " fill-opacity="1" fill-rule="nonzero"/><path fill="#ffffff" d="M 179.394531 122.9375 L 183.445312 122.9375 L 183.445312 126.992188 L 179.394531 126.992188 Z M 179.394531 122.9375 " fill-opacity="1" fill-rule="nonzero"/><path fill="#ffffff" d="M 195.597656 126.992188 L 199.648438 126.992188 L 199.648438 131.042969 L 195.597656 131.042969 Z M 195.597656 126.992188 " fill-opacity="1" fill-rule="nonzero"/><path fill="#ffffff" d="M 195.597656 118.886719 L 199.648438 118.886719 L 199.648438 122.9375 L 195.597656 122.9375 Z M 195.597656 118.886719 " fill-opacity="1" fill-rule="nonzero"/><path fill="#ffffff" d="M 195.597656 110.785156 L 199.648438 110.785156 L 199.648438 114.835938 L 195.597656 114.835938 Z M 195.597656 110.785156 " fill-opacity="1" fill-rule="nonzero"/><path fill="#ffffff" d="M 195.597656 98.632812 L 199.648438 98.632812 L 199.648438 102.683594 L 195.597656 102.683594 Z M 195.597656 98.632812 " fill-opacity="1" fill-rule="nonzero"/><path fill="#ffffff" d="M 203.699219 90.53125 L 207.75 90.53125 L 207.75 94.582031 L 203.699219 94.582031 Z M 203.699219 90.53125 " fill-opacity="1" fill-rule="nonzero"/><path fill="#ffffff" d="M 207.75 102.683594 L 211.800781 102.683594 L 211.800781 106.734375 L 207.75 106.734375 Z M 207.75 102.683594 " fill-opacity="1" fill-rule="nonzero"/><path fill="#ffffff" d="M 199.648438 106.734375 L 203.699219 106.734375 L 203.699219 110.785156 L 199.648438 110.785156 Z M 199.648438 106.734375 " fill-opacity="1" fill-rule="nonzero"/><path fill="#ffffff" d="M 207.75 110.785156 L 211.800781 110.785156 L 211.800781 114.835938 L 207.75 114.835938 Z M 207.75 110.785156 " fill-opacity="1" fill-rule="nonzero"/><path fill="#ffffff" d="M 199.648438 114.835938 L 203.699219 114.835938 L 203.699219 118.886719 L 199.648438 118.886719 Z M 199.648438 114.835938 " fill-opacity="1" fill-rule="nonzero"/><path fill="#ffffff" d="M 199.648438 122.9375 L 203.699219 122.9375 L 203.699219 126.992188 L 199.648438 126.992188 Z M 199.648438 122.9375 " fill-opacity="1" fill-rule="nonzero"/><path fill="#ffffff" d="M 191.546875 131.042969 L 195.597656 131.042969 L 195.597656 135.09375 L 191.546875 135.09375 Z M 191.546875 131.042969 " fill-opacity="1" fill-rule="nonzero"/><path fill="#ffffff" d="M 195.597656 135.09375 L 199.648438 135.09375 L 199.648438 139.144531 L 195.597656 139.144531 Z M 195.597656 135.09375 " fill-opacity="1" fill-rule="nonzero"/><path fill="#ffffff" d="M 199.648438 131.042969 L 207.75 131.042969 L 207.75 135.09375 L 199.648438 135.09375 Z M 199.648438 131.042969 " fill-opacity="1" fill-rule="nonzero"/><path fill="#ffffff" d="M 207.75 135.09375 L 211.800781 135.09375 L 211.800781 139.144531 L 207.75 139.144531 Z M 207.75 135.09375 " fill-opacity="1" fill-rule="nonzero"/><path fill="#ffffff" d="M 211.800781 131.042969 L 215.851562 131.042969 L 215.851562 135.09375 L 211.800781 135.09375 Z M 211.800781 131.042969 " fill-opacity="1" fill-rule="nonzero"/><path fill="#ffffff" d="M 215.851562 126.992188 L 219.902344 126.992188 L 219.902344 131.042969 L 215.851562 131.042969 Z M 215.851562 126.992188 " fill-opacity="1" fill-rule="nonzero"/><path fill="#ffffff" d="M 219.902344 122.9375 L 223.953125 122.9375 L 223.953125 126.992188 L 219.902344 126.992188 Z M 219.902344 122.9375 " fill-opacity="1" fill-rule="nonzero"/><path fill="#ffffff" d="M 215.851562 118.886719 L 219.902344 118.886719 L 219.902344 122.9375 L 215.851562 122.9375 Z M 215.851562 118.886719 " fill-opacity="1" fill-rule="nonzero"/><path fill="#ffffff" d="M 215.851562 110.785156 L 219.902344 110.785156 L 219.902344 114.835938 L 215.851562 114.835938 Z M 215.851562 110.785156 " fill-opacity="1" fill-rule="nonzero"/><path fill="#ffffff" d="M 219.902344 106.734375 L 223.953125 106.734375 L 223.953125 110.785156 L 219.902344 110.785156 Z M 219.902344 106.734375 " fill-opacity="1" fill-rule="nonzero"/><path fill="#ffffff" d="M 215.851562 98.632812 L 219.902344 98.632812 L 219.902344 102.683594 L 215.851562 102.683594 Z M 215.851562 98.632812 " fill-opacity="1" fill-rule="nonzero"/><path fill="#ffffff" d="M 228.003906 102.683594 L 232.054688 102.683594 L 232.054688 106.734375 L 228.003906 106.734375 Z M 228.003906 102.683594 " fill-opacity="1" fill-rule="nonzero"/><path fill="#ffffff" d="M 228.003906 110.785156 L 232.054688 110.785156 L 232.054688 114.835938 L 228.003906 114.835938 Z M 228.003906 110.785156 " fill-opacity="1" fill-rule="nonzero"/><path fill="#ffffff" d="M 223.953125 114.835938 L 228.003906 114.835938 L 228.003906 118.886719 L 223.953125 118.886719 Z M 223.953125 114.835938 " fill-opacity="1" fill-rule="nonzero"/><path fill="#ffffff" d="M 232.054688 118.886719 L 236.105469 118.886719 L 236.105469 122.9375 L 232.054688 122.9375 Z M 232.054688 118.886719 " fill-opacity="1" fill-rule="nonzero"/><path fill="#ffffff" d="M 236.105469 114.835938 L 240.15625 114.835938 L 240.15625 118.886719 L 236.105469 118.886719 Z M 236.105469 114.835938 " fill-opacity="1" fill-rule="nonzero"/><path fill="#ffffff" d="M 244.207031 110.785156 L 248.257812 110.785156 L 248.257812 114.835938 L 244.207031 114.835938 Z M 244.207031 110.785156 " fill-opacity="1" fill-rule="nonzero"/><path fill="#ffffff" d="M 236.105469 106.734375 L 240.15625 106.734375 L 240.15625 110.785156 L 236.105469 110.785156 Z M 236.105469 106.734375 " fill-opacity="1" fill-rule="nonzero"/><path fill="#ffffff" d="M 236.105469 98.632812 L 240.15625 98.632812 L 240.15625 102.683594 L 236.105469 102.683594 Z M 236.105469 98.632812 " fill-opacity="1" fill-rule="nonzero"/><path fill="#ffffff" d="M 248.257812 98.632812 L 252.308594 98.632812 L 252.308594 102.683594 L 248.257812 102.683594 Z M 248.257812 98.632812 " fill-opacity="1" fill-rule="nonzero"/><path fill="#ffffff" d="M 248.257812 106.734375 L 252.308594 106.734375 L 252.308594 110.785156 L 248.257812 110.785156 Z M 248.257812 106.734375 " fill-opacity="1" fill-rule="nonzero"/><path fill="#ffffff" d="M 248.257812 114.835938 L 252.308594 114.835938 L 252.308594 118.886719 L 248.257812 118.886719 Z M 248.257812 114.835938 " fill-opacity="1" fill-rule="nonzero"/><path fill="#ffffff" d="M 244.207031 118.886719 L 248.257812 118.886719 L 248.257812 122.9375 L 244.207031 122.9375 Z M 244.207031 118.886719 " fill-opacity="1" fill-rule="nonzero"/><path fill="#ffffff" d="M 240.15625 122.9375 L 244.207031 122.9375 L 244.207031 126.992188 L 240.15625 126.992188 Z M 240.15625 122.9375 " fill-opacity="1" fill-rule="nonzero"/><path fill="#ffffff" d="M 236.105469 126.992188 L 240.15625 126.992188 L 240.15625 131.042969 L 236.105469 131.042969 Z M 236.105469 126.992188 " fill-opacity="1" fill-rule="nonzero"/><path fill="#ffffff" d="M 232.054688 131.042969 L 236.105469 131.042969 L 236.105469 135.09375 L 232.054688 135.09375 Z M 232.054688 131.042969 " fill-opacity="1" fill-rule="nonzero"/><path fill="#ffffff" d="M 228.003906 135.09375 L 232.054688 135.09375 L 232.054688 139.144531 L 228.003906 139.144531 Z M 228.003906 135.09375 " fill-opacity="1" fill-rule="nonzero"/><path fill="#ffffff" d="M 219.902344 139.144531 L 228.003906 139.144531 L 228.003906 143.195312 L 219.902344 143.195312 Z M 219.902344 139.144531 " fill-opacity="1" fill-rule="nonzero"/><path fill="#ffffff" d="M 215.851562 135.09375 L 219.902344 135.09375 L 219.902344 139.144531 L 215.851562 139.144531 Z M 215.851562 135.09375 " fill-opacity="1" fill-rule="nonzero"/><path fill="#ffffff" d="M 236.105469 135.09375 L 240.15625 135.09375 L 240.15625 139.144531 L 236.105469 139.144531 Z M 236.105469 135.09375 " fill-opacity="1" fill-rule="nonzero"/><path fill="#ffffff" d="M 240.15625 131.042969 L 244.207031 131.042969 L 244.207031 135.09375 L 240.15625 135.09375 Z M 240.15625 131.042969 " fill-opacity="1" fill-rule="nonzero"/><path fill="#ffffff" d="M 244.207031 126.992188 L 248.257812 126.992188 L 248.257812 131.042969 L 244.207031 131.042969 Z M 244.207031 126.992188 " fill-opacity="1" fill-rule="nonzero"/><path fill="#ffffff" d="M 248.257812 131.042969 L 252.308594 131.042969 L 252.308594 135.09375 L 248.257812 135.09375 Z M 248.257812 131.042969 " fill-opacity="1" fill-rule="nonzero"/><path fill="#ffffff" d="M 252.308594 135.09375 L 256.359375 135.09375 L 256.359375 139.144531 L 252.308594 139.144531 Z M 252.308594 135.09375 " fill-opacity="1" fill-rule="nonzero"/><g clip-path="url(#d08137c412)"><path fill="#ffffff" d="M 256.359375 139.144531 L 260.410156 139.144531 L 260.410156 143.195312 L 256.359375 143.195312 Z M 256.359375 139.144531 " fill-opacity="1" fill-rule="nonzero"/></g><path fill="#ffffff" d="M 244.207031 135.09375 L 248.257812 135.09375 L 248.257812 139.144531 L 244.207031 139.144531 Z M 244.207031 135.09375 " fill-opacity="1" fill-rule="nonzero"/><path fill="#ffffff" d="M 248.257812 139.144531 L 252.308594 139.144531 L 252.308594 143.195312 L 248.257812 143.195312 Z M 248.257812 139.144531 " fill-opacity="1" fill-rule="nonzero"/><g clip-path="url(#b75f29d6dd)"><path fill="#ffffff" d="M 256.359375 131.042969 L 260.410156 131.042969 L 260.410156 135.09375 L 256.359375 135.09375 Z M 256.359375 131.042969 " fill-opacity="1" fill-rule="nonzero"/></g><g clip-path="url(#65486f8477)"><path fill="#ffffff" d="M 256.359375 118.886719 L 260.410156 118.886719 L 260.410156 122.9375 L 256.359375 122.9375 Z M 256.359375 118.886719 " fill-opacity="1" fill-rule="nonzero"/></g><g clip-path="url(#95056e339a)"><path fill="#ffffff" d="M 256.359375 106.734375 L 260.410156 106.734375 L 260.410156 114.835938 L 256.359375 114.835938 Z M 256.359375 106.734375 " fill-opacity="1" fill-rule="nonzero"/></g><path fill="#ffffff" d="M 122.679688 110.785156 L 126.730469 110.785156 L 126.730469 114.835938 L 122.679688 114.835938 Z M 122.679688 110.785156 " fill-opacity="1" fill-rule="nonzero"/><path fill="#ffffff" d="M 159.136719 114.835938 L 163.1875 114.835938 L 163.1875 122.9375 L 159.136719 122.9375 Z M 159.136719 114.835938 " fill-opacity="1" fill-rule="nonzero"/><path fill="#ffffff" d="M 187.496094 118.886719 L 191.546875 118.886719 L 191.546875 131.042969 L 187.496094 131.042969 Z M 187.496094 118.886719 " fill-opacity="1" fill-rule="nonzero"/><path fill="#ffffff" d="M 167.238281 118.886719 L 171.289062 118.886719 L 171.289062 131.042969 L 167.238281 131.042969 Z M 167.238281 118.886719 " fill-opacity="1" fill-rule="nonzero"/><path fill="#ffffff" d="M 228.003906 122.9375 L 232.054688 122.9375 L 232.054688 131.042969 L 228.003906 131.042969 Z M 228.003906 122.9375 " fill-opacity="1" fill-rule="nonzero"/><path fill="#ffffff" d="M 252.308594 122.9375 L 256.359375 122.9375 L 256.359375 131.042969 L 252.308594 131.042969 Z M 252.308594 122.9375 " fill-opacity="1" fill-rule="nonzero"/><path fill="#ffffff" d="M 219.902344 131.042969 L 228.003906 131.042969 L 228.003906 135.09375 L 219.902344 135.09375 Z M 219.902344 131.042969 " fill-opacity="1" fill-rule="nonzero"/><path fill="#ffffff" d="M 179.394531 131.042969 L 187.496094 131.042969 L 187.496094 135.09375 L 179.394531 135.09375 Z M 179.394531 131.042969 " fill-opacity="1" fill-rule="nonzero"/><g clip-path="url(#d38daaf375)"><path fill="#000000" d="M 260.410156 220.402344 L 181.082031 220.402344 L 220.746094 151.574219 Z M 210.152344 162.449219 L 186.746094 121.859375 L 161.824219 165.101562 L 154.246094 151.949219 L 114.578125 220.78125 L 176.535156 220.78125 L 207.222656 167.519531 Z M 210.152344 162.449219 " fill-opacity="1" fill-rule="nonzero"/></g><g fill="#ffffff" fill-opacity="0.4"><g transform="translate(43.991524, 272.967573)"><g><path d="M 18.042969 -16.339844 L 21.785156 -16.339844 L 21.785156 -20.085938 L 18.042969 -20.085938 Z M 1.703125 0 L 5.445312 0 L 5.445312 -3.746094 L 1.703125 -3.746094 Z M 1.703125 -4.085938 L 5.445312 -4.085938 L 5.445312 -7.828125 L 1.703125 -7.828125 Z M 1.703125 -8.171875 L 5.445312 -8.171875 L 5.445312 -11.914062 L 1.703125 -11.914062 Z M 1.703125 -12.253906 L 5.445312 -12.253906 L 5.445312 -16 L 1.703125 -16 Z M 1.703125 -16.339844 L 5.445312 -16.339844 L 5.445312 -20.085938 L 1.703125 -20.085938 Z M 1.703125 -20.425781 L 5.445312 -20.425781 L 5.445312 -24.167969 L 1.703125 -24.167969 Z M 5.785156 0 L 9.53125 0 L 9.53125 -3.746094 L 5.785156 -3.746094 Z M 5.785156 -12.253906 L 9.53125 -12.253906 L 9.53125 -16 L 5.785156 -16 Z M 5.785156 -20.425781 L 9.53125 -20.425781 L 9.53125 -24.167969 L 5.785156 -24.167969 Z M 9.871094 0 L 13.617188 0 L 13.617188 -3.746094 L 9.871094 -3.746094 Z M 9.871094 -12.253906 L 13.617188 -12.253906 L 13.617188 -16 L 9.871094 -16 Z M 9.871094 -20.425781 L 13.617188 -20.425781 L 13.617188 -24.167969 L 9.871094 -24.167969 Z M 13.957031 0 L 17.703125 0 L 17.703125 -3.746094 L 13.957031 -3.746094 Z M 13.957031 -12.253906 L 17.703125 -12.253906 L 17.703125 -16 L 13.957031 -16 Z M 13.957031 -20.425781 L 17.703125 -20.425781 L 17.703125 -24.167969 L 13.957031 -24.167969 Z M 18.042969 -4.085938 L 21.785156 -4.085938 L 21.785156 -7.828125 L 18.042969 -7.828125 Z M 18.042969 -8.171875 L 21.785156 -8.171875 L 21.785156 -11.914062 L 18.042969 -11.914062 Z M 18.042969 -8.171875 "/></g></g></g><g fill="#ffffff" fill-opacity="0.4"><g transform="translate(67.476669, 272.967573)"><g><path d="M 9.871094 -20.425781 L 13.617188 -20.425781 L 13.617188 -24.167969 L 9.871094 -24.167969 Z M 1.703125 0 L 5.445312 0 L 5.445312 -3.746094 L 1.703125 -3.746094 Z M 1.703125 -20.425781 L 5.445312 -20.425781 L 5.445312 -24.167969 L 1.703125 -24.167969 Z M 5.785156 0 L 9.53125 0 L 9.53125 -3.746094 L 5.785156 -3.746094 Z M 5.785156 -4.085938 L 9.53125 -4.085938 L 9.53125 -7.828125 L 5.785156 -7.828125 Z M 5.785156 -8.171875 L 9.53125 -8.171875 L 9.53125 -11.914062 L 5.785156 -11.914062 Z M 5.785156 -12.253906 L 9.53125 -12.253906 L 9.53125 -16 L 5.785156 -16 Z M 5.785156 -16.339844 L 9.53125 -16.339844 L 9.53125 -20.085938 L 5.785156 -20.085938 Z M 5.785156 -20.425781 L 9.53125 -20.425781 L 9.53125 -24.167969 L 5.785156 -24.167969 Z M 9.871094 0 L 13.617188 0 L 13.617188 -3.746094 L 9.871094 -3.746094 Z M 9.871094 0 "/></g></g></g><g fill="#ffffff" fill-opacity="0.4"><g transform="translate(82.793059, 272.967573)"><g><path d="M 17.359375 -20.425781 L 21.105469 -20.425781 L 21.105469 -24.167969 L 17.359375 -24.167969 Z M 1.019531 -20.425781 L 4.765625 -20.425781 L 4.765625 -24.167969 L 1.019531 -24.167969 Z M 5.105469 -20.425781 L 8.851562 -20.425781 L 8.851562 -24.167969 L 5.105469 -24.167969 Z M 9.191406 0 L 12.9375 0 L 12.9375 -3.746094 L 9.191406 -3.746094 Z M 9.191406 -4.085938 L 12.9375 -4.085938 L 12.9375 -7.828125 L 9.191406 -7.828125 Z M 9.191406 -8.171875 L 12.9375 -8.171875 L 12.9375 -11.914062 L 9.191406 -11.914062 Z M 9.191406 -12.253906 L 12.9375 -12.253906 L 12.9375 -16 L 9.191406 -16 Z M 9.191406 -16.339844 L 12.9375 -16.339844 L 12.9375 -20.085938 L 9.191406 -20.085938 Z M 9.191406 -20.425781 L 12.9375 -20.425781 L 12.9375 -24.167969 L 9.191406 -24.167969 Z M 13.277344 -20.425781 L 17.019531 -20.425781 L 17.019531 -24.167969 L 13.277344 -24.167969 Z M 13.277344 -20.425781 "/></g></g></g><g fill="#ffffff" fill-opacity="0.4"><g transform="translate(104.916739, 272.967573)"><g/></g></g><g fill="#ffffff" fill-opacity="0.4"><g transform="translate(118.531316, 272.967573)"><g><path d="M 18.042969 -20.425781 L 21.785156 -20.425781 L 21.785156 -24.167969 L 18.042969 -24.167969 Z M 1.703125 -4.085938 L 5.445312 -4.085938 L 5.445312 -7.828125 L 1.703125 -7.828125 Z M 1.703125 -16.339844 L 5.445312 -16.339844 L 5.445312 -20.085938 L 1.703125 -20.085938 Z M 5.785156 0 L 9.53125 0 L 9.53125 -3.746094 L 5.785156 -3.746094 Z M 5.785156 -12.253906 L 9.53125 -12.253906 L 9.53125 -16 L 5.785156 -16 Z M 5.785156 -20.425781 L 9.53125 -20.425781 L 9.53125 -24.167969 L 5.785156 -24.167969 Z M 9.871094 0 L 13.617188 0 L 13.617188 -3.746094 L 9.871094 -3.746094 Z M 9.871094 -12.253906 L 13.617188 -12.253906 L 13.617188 -16 L 9.871094 -16 Z M 9.871094 -20.425781 L 13.617188 -20.425781 L 13.617188 -24.167969 L 9.871094 -24.167969 Z M 13.957031 0 L 17.703125 0 L 17.703125 -3.746094 L 13.957031 -3.746094 Z M 13.957031 -12.253906 L 17.703125 -12.253906 L 17.703125 -16 L 13.957031 -16 Z M 13.957031 -20.425781 L 17.703125 -20.425781 L 17.703125 -24.167969 L 13.957031 -24.167969 Z M 18.042969 -4.085938 L 21.785156 -4.085938 L 21.785156 -7.828125 L 18.042969 -7.828125 Z M 18.042969 -8.171875 L 21.785156 -8.171875 L 21.785156 -11.914062 L 18.042969 -11.914062 Z M 18.042969 -8.171875 "/></g></g></g><g fill="#ffffff" fill-opacity="0.4"><g transform="translate(142.016461, 272.967573)"><g><path d="M 18.042969 -20.425781 L 21.785156 -20.425781 L 21.785156 -24.167969 L 18.042969 -24.167969 Z M 1.703125 -4.085938 L 5.445312 -4.085938 L 5.445312 -7.828125 L 1.703125 -7.828125 Z M 1.703125 -8.171875 L 5.445312 -8.171875 L 5.445312 -11.914062 L 1.703125 -11.914062 Z M 1.703125 -12.253906 L 5.445312 -12.253906 L 5.445312 -16 L 1.703125 -16 Z M 1.703125 -16.339844 L 5.445312 -16.339844 L 5.445312 -20.085938 L 1.703125 -20.085938 Z M 1.703125 -20.425781 L 5.445312 -20.425781 L 5.445312 -24.167969 L 1.703125 -24.167969 Z M 5.785156 0 L 9.53125 0 L 9.53125 -3.746094 L 5.785156 -3.746094 Z M 9.871094 0 L 13.617188 0 L 13.617188 -3.746094 L 9.871094 -3.746094 Z M 13.957031 0 L 17.703125 0 L 17.703125 -3.746094 L 13.957031 -3.746094 Z M 18.042969 -4.085938 L 21.785156 -4.085938 L 21.785156 -7.828125 L 18.042969 -7.828125 Z M 18.042969 -8.171875 L 21.785156 -8.171875 L 21.785156 -11.914062 L 18.042969 -11.914062 Z M 18.042969 -12.253906 L 21.785156 -12.253906 L 21.785156 -16 L 18.042969 -16 Z M 18.042969 -16.339844 L 21.785156 -16.339844 L 21.785156 -20.085938 L 18.042969 -20.085938 Z M 18.042969 -16.339844 "/></g></g></g><g fill="#ffffff" fill-opacity="0.4"><g transform="translate(165.501606, 272.967573)"><g><path d="M 26.210938 -20.425781 L 29.957031 -20.425781 L 29.957031 -24.167969 L 26.210938 -24.167969 Z M 1.703125 0 L 5.445312 0 L 5.445312 -3.746094 L 1.703125 -3.746094 Z M 1.703125 -4.085938 L 5.445312 -4.085938 L 5.445312 -7.828125 L 1.703125 -7.828125 Z M 1.703125 -8.171875 L 5.445312 -8.171875 L 5.445312 -11.914062 L 1.703125 -11.914062 Z M 1.703125 -12.253906 L 5.445312 -12.253906 L 5.445312 -16 L 1.703125 -16 Z M 1.703125 -16.339844 L 5.445312 -16.339844 L 5.445312 -20.085938 L 1.703125 -20.085938 Z M 1.703125 -20.425781 L 5.445312 -20.425781 L 5.445312 -24.167969 L 1.703125 -24.167969 Z M 5.785156 -20.425781 L 9.53125 -20.425781 L 9.53125 -24.167969 L 5.785156 -24.167969 Z M 9.871094 -16.339844 L 13.617188 -16.339844 L 13.617188 -20.085938 L 9.871094 -20.085938 Z M 13.957031 0 L 17.703125 0 L 17.703125 -3.746094 L 13.957031 -3.746094 Z M 13.957031 -4.085938 L 17.703125 -4.085938 L 17.703125 -7.828125 L 13.957031 -7.828125 Z M 13.957031 -8.171875 L 17.703125 -8.171875 L 17.703125 -11.914062 L 13.957031 -11.914062 Z M 13.957031 -12.253906 L 17.703125 -12.253906 L 17.703125 -16 L 13.957031 -16 Z M 18.042969 -16.339844 L 21.785156 -16.339844 L 21.785156 -20.085938 L 18.042969 -20.085938 Z M 22.128906 -20.425781 L 25.871094 -20.425781 L 25.871094 -24.167969 L 22.128906 -24.167969 Z M 26.210938 0 L 29.957031 0 L 29.957031 -3.746094 L 26.210938 -3.746094 Z M 26.210938 -4.085938 L 29.957031 -4.085938 L 29.957031 -7.828125 L 26.210938 -7.828125 Z M 26.210938 -8.171875 L 29.957031 -8.171875 L 29.957031 -11.914062 L 26.210938 -11.914062 Z M 26.210938 -12.253906 L 29.957031 -12.253906 L 29.957031 -16 L 26.210938 -16 Z M 26.210938 -16.339844 L 29.957031 -16.339844 L 29.957031 -20.085938 L 26.210938 -20.085938 Z M 26.210938 -16.339844 "/></g></g></g><g fill="#ffffff" fill-opacity="0.4"><g transform="translate(197.155492, 272.967573)"><g><path d="M 26.210938 -20.425781 L 29.957031 -20.425781 L 29.957031 -24.167969 L 26.210938 -24.167969 Z M 1.703125 0 L 5.445312 0 L 5.445312 -3.746094 L 1.703125 -3.746094 Z M 1.703125 -4.085938 L 5.445312 -4.085938 L 5.445312 -7.828125 L 1.703125 -7.828125 Z M 1.703125 -8.171875 L 5.445312 -8.171875 L 5.445312 -11.914062 L 1.703125 -11.914062 Z M 1.703125 -12.253906 L 5.445312 -12.253906 L 5.445312 -16 L 1.703125 -16 Z M 1.703125 -16.339844 L 5.445312 -16.339844 L 5.445312 -20.085938 L 1.703125 -20.085938 Z M 1.703125 -20.425781 L 5.445312 -20.425781 L 5.445312 -24.167969 L 1.703125 -24.167969 Z M 5.785156 -20.425781 L 9.53125 -20.425781 L 9.53125 -24.167969 L 5.785156 -24.167969 Z M 9.871094 -16.339844 L 13.617188 -16.339844 L 13.617188 -20.085938 L 9.871094 -20.085938 Z M 13.957031 0 L 17.703125 0 L 17.703125 -3.746094 L 13.957031 -3.746094 Z M 13.957031 -4.085938 L 17.703125 -4.085938 L 17.703125 -7.828125 L 13.957031 -7.828125 Z M 13.957031 -8.171875 L 17.703125 -8.171875 L 17.703125 -11.914062 L 13.957031 -11.914062 Z M 13.957031 -12.253906 L 17.703125 -12.253906 L 17.703125 -16 L 13.957031 -16 Z M 18.042969 -16.339844 L 21.785156 -16.339844 L 21.785156 -20.085938 L 18.042969 -20.085938 Z M 22.128906 -20.425781 L 25.871094 -20.425781 L 25.871094 -24.167969 L 22.128906 -24.167969 Z M 26.210938 0 L 29.957031 0 L 29.957031 -3.746094 L 26.210938 -3.746094 Z M 26.210938 -4.085938 L 29.957031 -4.085938 L 29.957031 -7.828125 L 26.210938 -7.828125 Z M 26.210938 -8.171875 L 29.957031 -8.171875 L 29.957031 -11.914062 L 26.210938 -11.914062 Z M 26.210938 -12.253906 L 29.957031 -12.253906 L 29.957031 -16 L 26.210938 -16 Z M 26.210938 -16.339844 L 29.957031 -16.339844 L 29.957031 -20.085938 L 26.210938 -20.085938 Z M 26.210938 -16.339844 "/></g></g></g><g fill="#ffffff" fill-opacity="0.4"><g transform="translate(228.809378, 272.967573)"><g><path d="M 9.871094 -20.425781 L 13.617188 -20.425781 L 13.617188 -24.167969 L 9.871094 -24.167969 Z M 1.703125 0 L 5.445312 0 L 5.445312 -3.746094 L 1.703125 -3.746094 Z M 1.703125 -20.425781 L 5.445312 -20.425781 L 5.445312 -24.167969 L 1.703125 -24.167969 Z M 5.785156 0 L 9.53125 0 L 9.53125 -3.746094 L 5.785156 -3.746094 Z M 5.785156 -4.085938 L 9.53125 -4.085938 L 9.53125 -7.828125 L 5.785156 -7.828125 Z M 5.785156 -8.171875 L 9.53125 -8.171875 L 9.53125 -11.914062 L 5.785156 -11.914062 Z M 5.785156 -12.253906 L 9.53125 -12.253906 L 9.53125 -16 L 5.785156 -16 Z M 5.785156 -16.339844 L 9.53125 -16.339844 L 9.53125 -20.085938 L 5.785156 -20.085938 Z M 5.785156 -20.425781 L 9.53125 -20.425781 L 9.53125 -24.167969 L 5.785156 -24.167969 Z M 9.871094 0 L 13.617188 0 L 13.617188 -3.746094 L 9.871094 -3.746094 Z M 9.871094 0 "/></g></g></g><g fill="#ffffff" fill-opacity="0.4"><g transform="translate(244.125768, 272.967573)"><g><path d="M 17.359375 -20.425781 L 21.105469 -20.425781 L 21.105469 -24.167969 L 17.359375 -24.167969 Z M 1.019531 -20.425781 L 4.765625 -20.425781 L 4.765625 -24.167969 L 1.019531 -24.167969 Z M 5.105469 -20.425781 L 8.851562 -20.425781 L 8.851562 -24.167969 L 5.105469 -24.167969 Z M 9.191406 0 L 12.9375 0 L 12.9375 -3.746094 L 9.191406 -3.746094 Z M 9.191406 -4.085938 L 12.9375 -4.085938 L 12.9375 -7.828125 L 9.191406 -7.828125 Z M 9.191406 -8.171875 L 12.9375 -8.171875 L 12.9375 -11.914062 L 9.191406 -11.914062 Z M 9.191406 -12.253906 L 12.9375 -12.253906 L 12.9375 -16 L 9.191406 -16 Z M 9.191406 -16.339844 L 12.9375 -16.339844 L 12.9375 -20.085938 L 9.191406 -20.085938 Z M 9.191406 -20.425781 L 12.9375 -20.425781 L 12.9375 -24.167969 L 9.191406 -24.167969 Z M 13.277344 -20.425781 L 17.019531 -20.425781 L 17.019531 -24.167969 L 13.277344 -24.167969 Z M 13.277344 -20.425781 "/></g></g></g><g fill="#ffffff" fill-opacity="0.4"><g transform="translate(266.24946, 272.967573)"><g/></g></g><g fill="#ffffff" fill-opacity="1"><g transform="translate(42.486982, 271.463032)"><g><path d="M 18.042969 -16.339844 L 21.785156 -16.339844 L 21.785156 -20.085938 L 18.042969 -20.085938 Z M 1.703125 0 L 5.445312 0 L 5.445312 -3.746094 L 1.703125 -3.746094 Z M 1.703125 -4.085938 L 5.445312 -4.085938 L 5.445312 -7.828125 L 1.703125 -7.828125 Z M 1.703125 -8.171875 L 5.445312 -8.171875 L 5.445312 -11.914062 L 1.703125 -11.914062 Z M 1.703125 -12.253906 L 5.445312 -12.253906 L 5.445312 -16 L 1.703125 -16 Z M 1.703125 -16.339844 L 5.445312 -16.339844 L 5.445312 -20.085938 L 1.703125 -20.085938 Z M 1.703125 -20.425781 L 5.445312 -20.425781 L 5.445312 -24.167969 L 1.703125 -24.167969 Z M 5.785156 0 L 9.53125 0 L 9.53125 -3.746094 L 5.785156 -3.746094 Z M 5.785156 -12.253906 L 9.53125 -12.253906 L 9.53125 -16 L 5.785156 -16 Z M 5.785156 -20.425781 L 9.53125 -20.425781 L 9.53125 -24.167969 L 5.785156 -24.167969 Z M 9.871094 0 L 13.617188 0 L 13.617188 -3.746094 L 9.871094 -3.746094 Z M 9.871094 -12.253906 L 13.617188 -12.253906 L 13.617188 -16 L 9.871094 -16 Z M 9.871094 -20.425781 L 13.617188 -20.425781 L 13.617188 -24.167969 L 9.871094 -24.167969 Z M 13.957031 0 L 17.703125 0 L 17.703125 -3.746094 L 13.957031 -3.746094 Z M 13.957031 -12.253906 L 17.703125 -12.253906 L 17.703125 -16 L 13.957031 -16 Z M 13.957031 -20.425781 L 17.703125 -20.425781 L 17.703125 -24.167969 L 13.957031 -24.167969 Z M 18.042969 -4.085938 L 21.785156 -4.085938 L 21.785156 -7.828125 L 18.042969 -7.828125 Z M 18.042969 -8.171875 L 21.785156 -8.171875 L 21.785156 -11.914062 L 18.042969 -11.914062 Z M 18.042969 -8.171875 "/></g></g></g><g fill="#ffffff" fill-opacity="1"><g transform="translate(65.972127, 271.463032)"><g><path d="M 9.871094 -20.425781 L 13.617188 -20.425781 L 13.617188 -24.167969 L 9.871094 -24.167969 Z M 1.703125 0 L 5.445312 0 L 5.445312 -3.746094 L 1.703125 -3.746094 Z M 1.703125 -20.425781 L 5.445312 -20.425781 L 5.445312 -24.167969 L 1.703125 -24.167969 Z M 5.785156 0 L 9.53125 0 L 9.53125 -3.746094 L 5.785156 -3.746094 Z M 5.785156 -4.085938 L 9.53125 -4.085938 L 9.53125 -7.828125 L 5.785156 -7.828125 Z M 5.785156 -8.171875 L 9.53125 -8.171875 L 9.53125 -11.914062 L 5.785156 -11.914062 Z M 5.785156 -12.253906 L 9.53125 -12.253906 L 9.53125 -16 L 5.785156 -16 Z M 5.785156 -16.339844 L 9.53125 -16.339844 L 9.53125 -20.085938 L 5.785156 -20.085938 Z M 5.785156 -20.425781 L 9.53125 -20.425781 L 9.53125 -24.167969 L 5.785156 -24.167969 Z M 9.871094 0 L 13.617188 0 L 13.617188 -3.746094 L 9.871094 -3.746094 Z M 9.871094 0 "/></g></g></g><g fill="#ffffff" fill-opacity="1"><g transform="translate(81.288517, 271.463032)"><g><path d="M 17.359375 -20.425781 L 21.105469 -20.425781 L 21.105469 -24.167969 L 17.359375 -24.167969 Z M 1.019531 -20.425781 L 4.765625 -20.425781 L 4.765625 -24.167969 L 1.019531 -24.167969 Z M 5.105469 -20.425781 L 8.851562 -20.425781 L 8.851562 -24.167969 L 5.105469 -24.167969 Z M 9.191406 0 L 12.9375 0 L 12.9375 -3.746094 L 9.191406 -3.746094 Z M 9.191406 -4.085938 L 12.9375 -4.085938 L 12.9375 -7.828125 L 9.191406 -7.828125 Z M 9.191406 -8.171875 L 12.9375 -8.171875 L 12.9375 -11.914062 L 9.191406 -11.914062 Z M 9.191406 -12.253906 L 12.9375 -12.253906 L 12.9375 -16 L 9.191406 -16 Z M 9.191406 -16.339844 L 12.9375 -16.339844 L 12.9375 -20.085938 L 9.191406 -20.085938 Z M 9.191406 -20.425781 L 12.9375 -20.425781 L 12.9375 -24.167969 L 9.191406 -24.167969 Z M 13.277344 -20.425781 L 17.019531 -20.425781 L 17.019531 -24.167969 L 13.277344 -24.167969 Z M 13.277344 -20.425781 "/></g></g></g><g fill="#ffffff" fill-opacity="1"><g transform="translate(103.412196, 271.463032)"><g/></g></g><g fill="#ffffff" fill-opacity="1"><g transform="translate(117.026774, 271.463032)"><g><path d="M 18.042969 -20.425781 L 21.785156 -20.425781 L 21.785156 -24.167969 L 18.042969 -24.167969 Z M 1.703125 -4.085938 L 5.445312 -4.085938 L 5.445312 -7.828125 L 1.703125 -7.828125 Z M 1.703125 -16.339844 L 5.445312 -16.339844 L 5.445312 -20.085938 L 1.703125 -20.085938 Z M 5.785156 0 L 9.53125 0 L 9.53125 -3.746094 L 5.785156 -3.746094 Z M 5.785156 -12.253906 L 9.53125 -12.253906 L 9.53125 -16 L 5.785156 -16 Z M 5.785156 -20.425781 L 9.53125 -20.425781 L 9.53125 -24.167969 L 5.785156 -24.167969 Z M 9.871094 0 L 13.617188 0 L 13.617188 -3.746094 L 9.871094 -3.746094 Z M 9.871094 -12.253906 L 13.617188 -12.253906 L 13.617188 -16 L 9.871094 -16 Z M 9.871094 -20.425781 L 13.617188 -20.425781 L 13.617188 -24.167969 L 9.871094 -24.167969 Z M 13.957031 0 L 17.703125 0 L 17.703125 -3.746094 L 13.957031 -3.746094 Z M 13.957031 -12.253906 L 17.703125 -12.253906 L 17.703125 -16 L 13.957031 -16 Z M 13.957031 -20.425781 L 17.703125 -20.425781 L 17.703125 -24.167969 L 13.957031 -24.167969 Z M 18.042969 -4.085938 L 21.785156 -4.085938 L 21.785156 -7.828125 L 18.042969 -7.828125 Z M 18.042969 -8.171875 L 21.785156 -8.171875 L 21.785156 -11.914062 L 18.042969 -11.914062 Z M 18.042969 -8.171875 "/></g></g></g><g fill="#ffffff" fill-opacity="1"><g transform="translate(140.511918, 271.463032)"><g><path d="M 18.042969 -20.425781 L 21.785156 -20.425781 L 21.785156 -24.167969 L 18.042969 -24.167969 Z M 1.703125 -4.085938 L 5.445312 -4.085938 L 5.445312 -7.828125 L 1.703125 -7.828125 Z M 1.703125 -8.171875 L 5.445312 -8.171875 L 5.445312 -11.914062 L 1.703125 -11.914062 Z M 1.703125 -12.253906 L 5.445312 -12.253906 L 5.445312 -16 L 1.703125 -16 Z M 1.703125 -16.339844 L 5.445312 -16.339844 L 5.445312 -20.085938 L 1.703125 -20.085938 Z M 1.703125 -20.425781 L 5.445312 -20.425781 L 5.445312 -24.167969 L 1.703125 -24.167969 Z M 5.785156 0 L 9.53125 0 L 9.53125 -3.746094 L 5.785156 -3.746094 Z M 9.871094 0 L 13.617188 0 L 13.617188 -3.746094 L 9.871094 -3.746094 Z M 13.957031 0 L 17.703125 0 L 17.703125 -3.746094 L 13.957031 -3.746094 Z M 18.042969 -4.085938 L 21.785156 -4.085938 L 21.785156 -7.828125 L 18.042969 -7.828125 Z M 18.042969 -8.171875 L 21.785156 -8.171875 L 21.785156 -11.914062 L 18.042969 -11.914062 Z M 18.042969 -12.253906 L 21.785156 -12.253906 L 21.785156 -16 L 18.042969 -16 Z M 18.042969 -16.339844 L 21.785156 -16.339844 L 21.785156 -20.085938 L 18.042969 -20.085938 Z M 18.042969 -16.339844 "/></g></g></g><g fill="#ffffff" fill-opacity="1"><g transform="translate(163.997063, 271.463032)"><g><path d="M 26.210938 -20.425781 L 29.957031 -20.425781 L 29.957031 -24.167969 L 26.210938 -24.167969 Z M 1.703125 0 L 5.445312 0 L 5.445312 -3.746094 L 1.703125 -3.746094 Z M 1.703125 -4.085938 L 5.445312 -4.085938 L 5.445312 -7.828125 L 1.703125 -7.828125 Z M 1.703125 -8.171875 L 5.445312 -8.171875 L 5.445312 -11.914062 L 1.703125 -11.914062 Z M 1.703125 -12.253906 L 5.445312 -12.253906 L 5.445312 -16 L 1.703125 -16 Z M 1.703125 -16.339844 L 5.445312 -16.339844 L 5.445312 -20.085938 L 1.703125 -20.085938 Z M 1.703125 -20.425781 L 5.445312 -20.425781 L 5.445312 -24.167969 L 1.703125 -24.167969 Z M 5.785156 -20.425781 L 9.53125 -20.425781 L 9.53125 -24.167969 L 5.785156 -24.167969 Z M 9.871094 -16.339844 L 13.617188 -16.339844 L 13.617188 -20.085938 L 9.871094 -20.085938 Z M 13.957031 0 L 17.703125 0 L 17.703125 -3.746094 L 13.957031 -3.746094 Z M 13.957031 -4.085938 L 17.703125 -4.085938 L 17.703125 -7.828125 L 13.957031 -7.828125 Z M 13.957031 -8.171875 L 17.703125 -8.171875 L 17.703125 -11.914062 L 13.957031 -11.914062 Z M 13.957031 -12.253906 L 17.703125 -12.253906 L 17.703125 -16 L 13.957031 -16 Z M 18.042969 -16.339844 L 21.785156 -16.339844 L 21.785156 -20.085938 L 18.042969 -20.085938 Z M 22.128906 -20.425781 L 25.871094 -20.425781 L 25.871094 -24.167969 L 22.128906 -24.167969 Z M 26.210938 0 L 29.957031 0 L 29.957031 -3.746094 L 26.210938 -3.746094 Z M 26.210938 -4.085938 L 29.957031 -4.085938 L 29.957031 -7.828125 L 26.210938 -7.828125 Z M 26.210938 -8.171875 L 29.957031 -8.171875 L 29.957031 -11.914062 L 26.210938 -11.914062 Z M 26.210938 -12.253906 L 29.957031 -12.253906 L 29.957031 -16 L 26.210938 -16 Z M 26.210938 -16.339844 L 29.957031 -16.339844 L 29.957031 -20.085938 L 26.210938 -20.085938 Z M 26.210938 -16.339844 "/></g></g></g><g fill="#ffffff" fill-opacity="1"><g transform="translate(195.650949, 271.463032)"><g><path d="M 26.210938 -20.425781 L 29.957031 -20.425781 L 29.957031 -24.167969 L 26.210938 -24.167969 Z M 1.703125 0 L 5.445312 0 L 5.445312 -3.746094 L 1.703125 -3.746094 Z M 1.703125 -4.085938 L 5.445312 -4.085938 L 5.445312 -7.828125 L 1.703125 -7.828125 Z M 1.703125 -8.171875 L 5.445312 -8.171875 L 5.445312 -11.914062 L 1.703125 -11.914062 Z M 1.703125 -12.253906 L 5.445312 -12.253906 L 5.445312 -16 L 1.703125 -16 Z M 1.703125 -16.339844 L 5.445312 -16.339844 L 5.445312 -20.085938 L 1.703125 -20.085938 Z M 1.703125 -20.425781 L 5.445312 -20.425781 L 5.445312 -24.167969 L 1.703125 -24.167969 Z M 5.785156 -20.425781 L 9.53125 -20.425781 L 9.53125 -24.167969 L 5.785156 -24.167969 Z M 9.871094 -16.339844 L 13.617188 -16.339844 L 13.617188 -20.085938 L 9.871094 -20.085938 Z M 13.957031 0 L 17.703125 0 L 17.703125 -3.746094 L 13.957031 -3.746094 Z M 13.957031 -4.085938 L 17.703125 -4.085938 L 17.703125 -7.828125 L 13.957031 -7.828125 Z M 13.957031 -8.171875 L 17.703125 -8.171875 L 17.703125 -11.914062 L 13.957031 -11.914062 Z M 13.957031 -12.253906 L 17.703125 -12.253906 L 17.703125 -16 L 13.957031 -16 Z M 18.042969 -16.339844 L 21.785156 -16.339844 L 21.785156 -20.085938 L 18.042969 -20.085938 Z M 22.128906 -20.425781 L 25.871094 -20.425781 L 25.871094 -24.167969 L 22.128906 -24.167969 Z M 26.210938 0 L 29.957031 0 L 29.957031 -3.746094 L 26.210938 -3.746094 Z M 26.210938 -4.085938 L 29.957031 -4.085938 L 29.957031 -7.828125 L 26.210938 -7.828125 Z M 26.210938 -8.171875 L 29.957031 -8.171875 L 29.957031 -11.914062 L 26.210938 -11.914062 Z M 26.210938 -12.253906 L 29.957031 -12.253906 L 29.957031 -16 L 26.210938 -16 Z M 26.210938 -16.339844 L 29.957031 -16.339844 L 29.957031 -20.085938 L 26.210938 -20.085938 Z M 26.210938 -16.339844 "/></g></g></g><g fill="#ffffff" fill-opacity="1"><g transform="translate(227.304835, 271.463032)"><g><path d="M 9.871094 -20.425781 L 13.617188 -20.425781 L 13.617188 -24.167969 L 9.871094 -24.167969 Z M 1.703125 0 L 5.445312 0 L 5.445312 -3.746094 L 1.703125 -3.746094 Z M 1.703125 -20.425781 L 5.445312 -20.425781 L 5.445312 -24.167969 L 1.703125 -24.167969 Z M 5.785156 0 L 9.53125 0 L 9.53125 -3.746094 L 5.785156 -3.746094 Z M 5.785156 -4.085938 L 9.53125 -4.085938 L 9.53125 -7.828125 L 5.785156 -7.828125 Z M 5.785156 -8.171875 L 9.53125 -8.171875 L 9.53125 -11.914062 L 5.785156 -11.914062 Z M 5.785156 -12.253906 L 9.53125 -12.253906 L 9.53125 -16 L 5.785156 -16 Z M 5.785156 -16.339844 L 9.53125 -16.339844 L 9.53125 -20.085938 L 5.785156 -20.085938 Z M 5.785156 -20.425781 L 9.53125 -20.425781 L 9.53125 -24.167969 L 5.785156 -24.167969 Z M 9.871094 0 L 13.617188 0 L 13.617188 -3.746094 L 9.871094 -3.746094 Z M 9.871094 0 "/></g></g></g><g fill="#ffffff" fill-opacity="1"><g transform="translate(242.621226, 271.463032)"><g><path d="M 17.359375 -20.425781 L 21.105469 -20.425781 L 21.105469 -24.167969 L 17.359375 -24.167969 Z M 1.019531 -20.425781 L 4.765625 -20.425781 L 4.765625 -24.167969 L 1.019531 -24.167969 Z M 5.105469 -20.425781 L 8.851562 -20.425781 L 8.851562 -24.167969 L 5.105469 -24.167969 Z M 9.191406 0 L 12.9375 0 L 12.9375 -3.746094 L 9.191406 -3.746094 Z M 9.191406 -4.085938 L 12.9375 -4.085938 L 12.9375 -7.828125 L 9.191406 -7.828125 Z M 9.191406 -8.171875 L 12.9375 -8.171875 L 12.9375 -11.914062 L 9.191406 -11.914062 Z M 9.191406 -12.253906 L 12.9375 -12.253906 L 12.9375 -16 L 9.191406 -16 Z M 9.191406 -16.339844 L 12.9375 -16.339844 L 12.9375 -20.085938 L 9.191406 -20.085938 Z M 9.191406 -20.425781 L 12.9375 -20.425781 L 12.9375 -24.167969 L 9.191406 -24.167969 Z M 13.277344 -20.425781 L 17.019531 -20.425781 L 17.019531 -24.167969 L 13.277344 -24.167969 Z M 13.277344 -20.425781 "/></g></g></g><g fill="#ffffff" fill-opacity="1"><g transform="translate(264.744917, 271.463032)"><g/></g></g><g fill="#ffffff" fill-opacity="0.4"><g transform="translate(279.876935, 272.967573)"><g><path d="M 1.703125 -24.511719 L 5.445312 -24.511719 L 5.445312 -28.253906 L 1.703125 -28.253906 Z M 1.703125 -20.425781 L 5.445312 -20.425781 L 5.445312 -24.167969 L 1.703125 -24.167969 Z M 1.703125 -20.425781 "/></g></g></g><g fill="#ffffff" fill-opacity="0.4"><g transform="translate(287.024584, 272.967573)"><g><path d="M 18.042969 -16.339844 L 21.785156 -16.339844 L 21.785156 -20.085938 L 18.042969 -20.085938 Z M 1.703125 0 L 5.445312 0 L 5.445312 -3.746094 L 1.703125 -3.746094 Z M 1.703125 -4.085938 L 5.445312 -4.085938 L 5.445312 -7.828125 L 1.703125 -7.828125 Z M 1.703125 -8.171875 L 5.445312 -8.171875 L 5.445312 -11.914062 L 1.703125 -11.914062 Z M 1.703125 -20.425781 L 5.445312 -20.425781 L 5.445312 -24.167969 L 1.703125 -24.167969 Z M 5.785156 0 L 9.53125 0 L 9.53125 -3.746094 L 5.785156 -3.746094 Z M 5.785156 -12.253906 L 9.53125 -12.253906 L 9.53125 -16 L 5.785156 -16 Z M 5.785156 -20.425781 L 9.53125 -20.425781 L 9.53125 -24.167969 L 5.785156 -24.167969 Z M 9.871094 0 L 13.617188 0 L 13.617188 -3.746094 L 9.871094 -3.746094 Z M 9.871094 -12.253906 L 13.617188 -12.253906 L 13.617188 -16 L 9.871094 -16 Z M 9.871094 -20.425781 L 13.617188 -20.425781 L 13.617188 -24.167969 L 9.871094 -24.167969 Z M 13.957031 0 L 17.703125 0 L 17.703125 -3.746094 L 13.957031 -3.746094 Z M 13.957031 -12.253906 L 17.703125 -12.253906 L 17.703125 -16 L 13.957031 -16 Z M 13.957031 -20.425781 L 17.703125 -20.425781 L 17.703125 -24.167969 L 13.957031 -24.167969 Z M 18.042969 0 L 21.785156 0 L 21.785156 -3.746094 L 18.042969 -3.746094 Z M 18.042969 0 "/></g></g></g><g fill="#ffffff" fill-opacity="0.4"><g transform="translate(310.509729, 272.967573)"><g><path d="M 18.042969 -20.425781 L 21.785156 -20.425781 L 21.785156 -24.167969 L 18.042969 -24.167969 Z M 1.703125 -12.253906 L 5.445312 -12.253906 L 5.445312 -16 L 1.703125 -16 Z M 1.703125 -16.339844 L 5.445312 -16.339844 L 5.445312 -20.085938 L 1.703125 -20.085938 Z M 1.703125 -20.425781 L 5.445312 -20.425781 L 5.445312 -24.167969 L 1.703125 -24.167969 Z M 5.785156 -12.253906 L 9.53125 -12.253906 L 9.53125 -16 L 5.785156 -16 Z M 9.871094 -12.253906 L 13.617188 -12.253906 L 13.617188 -16 L 9.871094 -16 Z M 13.957031 -12.253906 L 17.703125 -12.253906 L 17.703125 -16 L 13.957031 -16 Z M 18.042969 0 L 21.785156 0 L 21.785156 -3.746094 L 18.042969 -3.746094 Z M 18.042969 -4.085938 L 21.785156 -4.085938 L 21.785156 -7.828125 L 18.042969 -7.828125 Z M 18.042969 -8.171875 L 21.785156 -8.171875 L 21.785156 -11.914062 L 18.042969 -11.914062 Z M 18.042969 -12.253906 L 21.785156 -12.253906 L 21.785156 -16 L 18.042969 -16 Z M 18.042969 -16.339844 L 21.785156 -16.339844 L 21.785156 -20.085938 L 18.042969 -20.085938 Z M 18.042969 -16.339844 "/></g></g></g><g fill="#00bf63" fill-opacity="1"><g transform="translate(278.372392, 271.463032)"><g><path d="M 1.703125 -24.511719 L 5.445312 -24.511719 L 5.445312 -28.253906 L 1.703125 -28.253906 Z M 1.703125 -20.425781 L 5.445312 -20.425781 L 5.445312 -24.167969 L 1.703125 -24.167969 Z M 1.703125 -20.425781 "/></g></g></g><g fill="#00bf63" fill-opacity="1"><g transform="translate(285.520041, 271.463032)"><g><path d="M 18.042969 -16.339844 L 21.785156 -16.339844 L 21.785156 -20.085938 L 18.042969 -20.085938 Z M 1.703125 0 L 5.445312 0 L 5.445312 -3.746094 L 1.703125 -3.746094 Z M 1.703125 -4.085938 L 5.445312 -4.085938 L 5.445312 -7.828125 L 1.703125 -7.828125 Z M 1.703125 -8.171875 L 5.445312 -8.171875 L 5.445312 -11.914062 L 1.703125 -11.914062 Z M 1.703125 -20.425781 L 5.445312 -20.425781 L 5.445312 -24.167969 L 1.703125 -24.167969 Z M 5.785156 0 L 9.53125 0 L 9.53125 -3.746094 L 5.785156 -3.746094 Z M 5.785156 -12.253906 L 9.53125 -12.253906 L 9.53125 -16 L 5.785156 -16 Z M 5.785156 -20.425781 L 9.53125 -20.425781 L 9.53125 -24.167969 L 5.785156 -24.167969 Z M 9.871094 0 L 13.617188 0 L 13.617188 -3.746094 L 9.871094 -3.746094 Z M 9.871094 -12.253906 L 13.617188 -12.253906 L 13.617188 -16 L 9.871094 -16 Z M 9.871094 -20.425781 L 13.617188 -20.425781 L 13.617188 -24.167969 L 9.871094 -24.167969 Z M 13.957031 0 L 17.703125 0 L 17.703125 -3.746094 L 13.957031 -3.746094 Z M 13.957031 -12.253906 L 17.703125 -12.253906 L 17.703125 -16 L 13.957031 -16 Z M 13.957031 -20.425781 L 17.703125 -20.425781 L 17.703125 -24.167969 L 13.957031 -24.167969 Z M 18.042969 0 L 21.785156 0 L 21.785156 -3.746094 L 18.042969 -3.746094 Z M 18.042969 0 "/></g></g></g><g fill="#00bf63" fill-opacity="1"><g transform="translate(309.005186, 271.463032)"><g><path d="M 18.042969 -20.425781 L 21.785156 -20.425781 L 21.785156 -24.167969 L 18.042969 -24.167969 Z M 1.703125 -12.253906 L 5.445312 -12.253906 L 5.445312 -16 L 1.703125 -16 Z M 1.703125 -16.339844 L 5.445312 -16.339844 L 5.445312 -20.085938 L 1.703125 -20.085938 Z M 1.703125 -20.425781 L 5.445312 -20.425781 L 5.445312 -24.167969 L 1.703125 -24.167969 Z M 5.785156 -12.253906 L 9.53125 -12.253906 L 9.53125 -16 L 5.785156 -16 Z M 9.871094 -12.253906 L 13.617188 -12.253906 L 13.617188 -16 L 9.871094 -16 Z M 13.957031 -12.253906 L 17.703125 -12.253906 L 17.703125 -16 L 13.957031 -16 Z M 18.042969 0 L 21.785156 0 L 21.785156 -3.746094 L 18.042969 -3.746094 Z M 18.042969 -4.085938 L 21.785156 -4.085938 L 21.785156 -7.828125 L 18.042969 -7.828125 Z M 18.042969 -8.171875 L 21.785156 -8.171875 L 21.785156 -11.914062 L 18.042969 -11.914062 Z M 18.042969 -12.253906 L 21.785156 -12.253906 L 21.785156 -16 L 18.042969 -16 Z M 18.042969 -16.339844 L 21.785156 -16.339844 L 21.785156 -20.085938 L 18.042969 -20.085938 Z M 18.042969 -16.339844 "/></g></g></g></svg>